<?xml version="1.0" encoding="UTF-8" standalone="no"?>
<svg
   xmlns:dc="http://purl.org/dc/elements/1.1/"
   xmlns:cc="http://creativecommons.org/ns#"
   xmlns:rdf="http://www.w3.org/1999/02/22-rdf-syntax-ns#"
   xmlns:svg="http://www.w3.org/2000/svg"
   xmlns="http://www.w3.org/2000/svg"
   xmlns:sodipodi="http://sodipodi.sourceforge.net/DTD/sodipodi-0.dtd"
   xmlns:inkscape="http://www.inkscape.org/namespaces/inkscape"
   viewBox="0 0 1220 610"
   id="svg2"
   height="610mm"
   width="1220mm"
   version="1.1"
   sodipodi:docname="toorcamp2018badge-jig-acrylic.svg"
   inkscape:version="0.92.1 r">
  <sodipodi:namedview
     pagecolor="#ffffff"
     bordercolor="#666666"
     borderopacity="1"
     objecttolerance="10"
     gridtolerance="10"
     guidetolerance="10"
     inkscape:pageopacity="0"
     inkscape:pageshadow="2"
     inkscape:window-width="1677"
     inkscape:window-height="959"
     id="namedview4886"
     showgrid="true"
     inkscape:zoom="0.69745902"
     inkscape:cx="823.77103"
     inkscape:cy="1728.4742"
     inkscape:window-x="0"
     inkscape:window-y="45"
     inkscape:window-maximized="0"
     inkscape:current-layer="svg2"
     inkscape:document-units="mm"
     inkscape:measure-start="0,0"
     inkscape:measure-end="0,0">
    <inkscape:grid
       units="mm"
       spacingx="0.1"
       spacingy="0.1"
       empspacing="10"
       type="xygrid"
       id="grid6450" />
  </sodipodi:namedview>
  <defs
     id="defs4">
    <symbol
       id="*PAPER_SPACE" />
    <symbol
       id="*MODEL_SPACE" />
    <pattern
       id="Hatch"
       x="0"
       y="0"
       patternUnits="userSpaceOnUse"
       width="8"
       height="8">
      <path
         id="path617966"
         d="M8 4 l-4,4"
         stroke-width="0.25"
         stroke="#000000"
         linecap="square" />
      <path
         id="path617968"
         d="M6 2 l-4,4"
         stroke-width="0.25"
         stroke="#000000"
         linecap="square" />
      <path
         id="path617970"
         d="M4 0 l-4,4"
         stroke-width="0.25"
         stroke="#000000"
         linecap="square" />
    </pattern>
    <marker
       style="overflow:visible"
       id="DistanceX"
       orient="auto"
       refY="0"
       refX="0">
      <path
         style="stroke:#000000;stroke-width:0.5"
         id="path617963"
         d="M 3,-3 -3,3 M 0,-5 0,5" />
    </marker>
    <symbol
       id="$PAPER_SPACE" />
    <symbol
       id="$MODEL_SPACE" />
    <pattern
       height="8"
       width="8"
       patternUnits="userSpaceOnUse"
       y="0"
       x="0"
       id="Hatch-0">
      <path
         linecap="square"
         stroke="#000000"
         stroke-width="0.25"
         d="M8 4 l-4,4"
         id="path73478" />
      <path
         linecap="square"
         stroke="#000000"
         stroke-width="0.25"
         d="M6 2 l-4,4"
         id="path73480" />
      <path
         linecap="square"
         stroke="#000000"
         stroke-width="0.25"
         d="M4 0 l-4,4"
         id="path73482" />
    </pattern>
    <marker
       style="overflow:visible"
       id="DistanceX-5"
       orient="auto"
       refY="0"
       refX="0">
      <path
         style="stroke:#000000;stroke-width:0.5"
         id="path73475"
         d="M 3,-3 -3,3 M 0,-5 0,5" />
    </marker>
    <symbol
       id="$PAPER_SPACE-1" />
    <symbol
       id="$MODEL_SPACE-0" />
    <pattern
       id="Hatch-1"
       x="0"
       y="0"
       patternUnits="userSpaceOnUse"
       width="8"
       height="8">
      <path
         id="path44235"
         d="M8 4 l-4,4"
         stroke-width="0.25"
         stroke="#000000"
         linecap="square" />
      <path
         id="path44237"
         d="M6 2 l-4,4"
         stroke-width="0.25"
         stroke="#000000"
         linecap="square" />
      <path
         id="path44239"
         d="M4 0 l-4,4"
         stroke-width="0.25"
         stroke="#000000"
         linecap="square" />
    </pattern>
    <marker
       style="overflow:visible"
       id="DistanceX-1"
       orient="auto"
       refY="0"
       refX="0">
      <path
         style="stroke:#000000;stroke-width:0.5"
         id="path44232"
         d="M 3,-3 -3,3 M 0,-5 0,5" />
    </marker>
    <symbol
       id="$PAPER_SPACE-5" />
    <symbol
       id="$MODEL_SPACE-4" />
    <pattern
       height="8"
       width="8"
       patternUnits="userSpaceOnUse"
       y="0"
       x="0"
       id="Hatch-04">
      <path
         linecap="square"
         stroke="#000000"
         stroke-width="0.25"
         d="M8 4 l-4,4"
         id="path101669" />
      <path
         linecap="square"
         stroke="#000000"
         stroke-width="0.25"
         d="M6 2 l-4,4"
         id="path101671" />
      <path
         linecap="square"
         stroke="#000000"
         stroke-width="0.25"
         d="M4 0 l-4,4"
         id="path101673" />
    </pattern>
    <marker
       refY="0"
       refX="0"
       style="overflow:visible"
       id="DistanceX-2"
       orient="auto">
      <path
         style="stroke:#000000;stroke-width:0.5"
         d="M 3,-3 -3,3 M 0,-5 0,5"
         id="path101666" />
    </marker>
    <symbol
       id="*PAPER_SPACE-9" />
    <symbol
       id="*MODEL_SPACE-2" />
    <pattern
       height="8"
       width="8"
       patternUnits="userSpaceOnUse"
       y="0"
       x="0"
       id="Hatch-9">
      <path
         linecap="square"
         stroke="#000000"
         stroke-width="0.25"
         d="M8 4 l-4,4"
         id="path145873" />
      <path
         linecap="square"
         stroke="#000000"
         stroke-width="0.25"
         d="M6 2 l-4,4"
         id="path145875" />
      <path
         linecap="square"
         stroke="#000000"
         stroke-width="0.25"
         d="M4 0 l-4,4"
         id="path145877" />
    </pattern>
    <marker
       refY="0"
       refX="0"
       style="overflow:visible"
       id="DistanceX-24"
       orient="auto">
      <path
         style="stroke:#000000;stroke-width:0.5"
         d="M 3,-3 -3,3 M 0,-5 0,5"
         id="path145870" />
    </marker>
    <symbol
       id="$PAPER_SPACE-4" />
    <symbol
       id="$MODEL_SPACE-1" />
    <pattern
       height="8"
       width="8"
       patternUnits="userSpaceOnUse"
       y="0"
       x="0"
       id="Hatch-8">
      <path
         linecap="square"
         stroke="#000000"
         stroke-width="0.25"
         d="M8 4 l-4,4"
         id="path1947" />
      <path
         linecap="square"
         stroke="#000000"
         stroke-width="0.25"
         d="M6 2 l-4,4"
         id="path1949" />
      <path
         linecap="square"
         stroke="#000000"
         stroke-width="0.25"
         d="M4 0 l-4,4"
         id="path1951" />
    </pattern>
    <marker
       refY="0"
       refX="0"
       style="overflow:visible"
       id="DistanceX-55"
       orient="auto">
      <path
         style="stroke:#000000;stroke-width:0.5"
         d="M 3,-3 -3,3 M 0,-5 0,5"
         id="path1944" />
    </marker>
    <symbol
       id="*PAPER_SPACE-7" />
    <symbol
       id="*MODEL_SPACE-0" />
    <pattern
       height="8"
       width="8"
       patternUnits="userSpaceOnUse"
       y="0"
       x="0"
       id="Hatch-82">
      <path
         linecap="square"
         stroke="#000000"
         stroke-width="0.25"
         d="M8 4 l-4,4"
         id="path1175" />
      <path
         linecap="square"
         stroke="#000000"
         stroke-width="0.25"
         d="M6 2 l-4,4"
         id="path1177" />
      <path
         linecap="square"
         stroke="#000000"
         stroke-width="0.25"
         d="M4 0 l-4,4"
         id="path1179" />
    </pattern>
    <marker
       refY="0"
       refX="0"
       style="overflow:visible"
       id="DistanceX-29"
       orient="auto">
      <path
         style="stroke:#000000;stroke-width:0.5"
         d="M 3,-3 -3,3 M 0,-5 0,5"
         id="path1172" />
    </marker>
    <symbol
       id="*PAPER_SPACE-76" />
    <symbol
       id="*MODEL_SPACE-5" />
    <pattern
       height="8"
       width="8"
       patternUnits="userSpaceOnUse"
       y="0"
       x="0"
       id="Hatch-3">
      <path
         linecap="square"
         stroke="#000000"
         stroke-width="0.25"
         d="M8 4 l-4,4"
         id="path1809-9" />
      <path
         linecap="square"
         stroke="#000000"
         stroke-width="0.25"
         d="M6 2 l-4,4"
         id="path1811-8" />
      <path
         linecap="square"
         stroke="#000000"
         stroke-width="0.25"
         d="M4 0 l-4,4"
         id="path1813-6" />
    </pattern>
    <marker
       refY="0"
       refX="0"
       style="overflow:visible"
       id="DistanceX-0"
       orient="auto">
      <path
         style="stroke:#000000;stroke-width:0.5"
         d="M 3,-3 -3,3 M 0,-5 0,5"
         id="path1806" />
    </marker>
    <symbol
       id="*PAPER_SPACE-6" />
    <symbol
       id="*MODEL_SPACE-7" />
    <pattern
       height="8"
       width="8"
       patternUnits="userSpaceOnUse"
       y="0"
       x="0"
       id="Hatch-5">
      <path
         linecap="square"
         stroke="#000000"
         stroke-width="0.25"
         d="M8 4 l-4,4"
         id="path1851" />
      <path
         linecap="square"
         stroke="#000000"
         stroke-width="0.25"
         d="M6 2 l-4,4"
         id="path1853" />
      <path
         linecap="square"
         stroke="#000000"
         stroke-width="0.25"
         d="M4 0 l-4,4"
         id="path1855" />
    </pattern>
    <marker
       refY="0"
       refX="0"
       style="overflow:visible"
       id="DistanceX-6"
       orient="auto">
      <path
         style="stroke:#000000;stroke-width:0.5"
         d="M 3,-3 -3,3 M 0,-5 0,5"
         id="path1848" />
    </marker>
    <symbol
       id="*PAPER_SPACE-0" />
    <symbol
       id="*MODEL_SPACE-27" />
    <pattern
       height="8"
       width="8"
       patternUnits="userSpaceOnUse"
       y="0"
       x="0"
       id="Hatch-6">
      <path
         linecap="square"
         stroke="#000000"
         stroke-width="0.25"
         d="M8 4 l-4,4"
         id="path1858" />
      <path
         linecap="square"
         stroke="#000000"
         stroke-width="0.25"
         d="M6 2 l-4,4"
         id="path1860" />
      <path
         linecap="square"
         stroke="#000000"
         stroke-width="0.25"
         d="M4 0 l-4,4"
         id="path1862" />
    </pattern>
    <marker
       refY="0"
       refX="0"
       style="overflow:visible"
       id="DistanceX-65"
       orient="auto">
      <path
         style="stroke:#000000;stroke-width:0.5"
         d="M 3,-3 -3,3 M 0,-5 0,5"
         id="path1855-7" />
    </marker>
  </defs>
  <metadata
     id="metadata7">
    <rdf:RDF>
      <cc:Work
         rdf:about="">
        <dc:format>image/svg+xml</dc:format>
        <dc:type
           rdf:resource="http://purl.org/dc/dcmitype/StillImage" />
        <dc:title></dc:title>
      </cc:Work>
    </rdf:RDF>
  </metadata>
  <path
     style="fill:none;stroke:#000000;stroke-width:0.33074999;stroke-linecap:butt;stroke-linejoin:miter;stroke-miterlimit:4;stroke-dasharray:none;stroke-opacity:1"
     d="m 19.85916,15.983882 h 5.18124 v 1.432741 h -5.18124 v -1.432741"
     id="path42"
     inkscape:connector-curvature="0" />
  <path
     style="fill:none;stroke:#000000;stroke-width:0.33074999;stroke-linecap:butt;stroke-linejoin:miter;stroke-miterlimit:4;stroke-dasharray:none;stroke-opacity:1"
     d="m 32.35915,15.983882 h 5.18125 v 1.432741 h -5.18125 v -1.432741"
     id="path42-3"
     inkscape:connector-curvature="0" />
  <path
     style="fill:none;stroke:#000000;stroke-width:0.33074999;stroke-linecap:butt;stroke-linejoin:miter;stroke-miterlimit:4;stroke-dasharray:none;stroke-opacity:1"
     d="m 44.85915,15.983882 h 5.18124 v 1.432741 h -5.18124 v -1.432741"
     id="path42-6"
     inkscape:connector-curvature="0" />
  <path
     style="fill:none;stroke:#000000;stroke-width:0.33074999;stroke-linecap:butt;stroke-linejoin:miter;stroke-miterlimit:4;stroke-dasharray:none;stroke-opacity:1"
     d="m 57.35915,15.983882 h 5.18124 v 1.432741 h -5.18124 v -1.432741"
     id="path42-3-7"
     inkscape:connector-curvature="0" />
  <path
     style="fill:none;stroke:#000000;stroke-width:0.33074999;stroke-linecap:butt;stroke-linejoin:miter;stroke-miterlimit:4;stroke-dasharray:none;stroke-opacity:1"
     d="m 69.85915,15.983882 h 5.18124 v 1.432741 h -5.18124 v -1.432741"
     id="path42-3-5"
     inkscape:connector-curvature="0" />
  <path
     style="fill:none;stroke:#000000;stroke-width:0.33074999;stroke-linecap:butt;stroke-linejoin:miter;stroke-miterlimit:4;stroke-dasharray:none;stroke-opacity:1"
     d="m 82.35914,15.983882 h 5.18125 v 1.432741 h -5.18125 v -1.432741"
     id="path42-6-3"
     inkscape:connector-curvature="0" />
  <path
     style="fill:none;stroke:#000000;stroke-width:0.33074999;stroke-linecap:butt;stroke-linejoin:miter;stroke-miterlimit:4;stroke-dasharray:none;stroke-opacity:1"
     d="m 94.85914,15.983882 h 5.18125 v 1.432741 h -5.18125 v -1.432741"
     id="path42-3-7-5"
     inkscape:connector-curvature="0" />
  <path
     style="fill:none;stroke:#000000;stroke-width:0.33074999;stroke-linecap:butt;stroke-linejoin:miter;stroke-miterlimit:4;stroke-dasharray:none;stroke-opacity:1"
     d="m 122.85916,15.983882 h 5.18124 v 1.432741 h -5.18124 v -1.432741"
     id="path42-62"
     inkscape:connector-curvature="0" />
  <path
     style="fill:none;stroke:#000000;stroke-width:0.33074999;stroke-linecap:butt;stroke-linejoin:miter;stroke-miterlimit:4;stroke-dasharray:none;stroke-opacity:1"
     d="m 135.35915,15.983882 h 5.18125 v 1.432741 h -5.18125 v -1.432741"
     id="path42-3-9"
     inkscape:connector-curvature="0" />
  <path
     style="fill:none;stroke:#000000;stroke-width:0.33074999;stroke-linecap:butt;stroke-linejoin:miter;stroke-miterlimit:4;stroke-dasharray:none;stroke-opacity:1"
     d="m 147.85915,15.983882 h 5.18125 v 1.432741 h -5.18125 v -1.432741"
     id="path42-6-1"
     inkscape:connector-curvature="0" />
  <path
     style="fill:none;stroke:#000000;stroke-width:0.33074999;stroke-linecap:butt;stroke-linejoin:miter;stroke-miterlimit:4;stroke-dasharray:none;stroke-opacity:1"
     d="m 160.35915,15.983882 h 5.18124 v 1.432741 h -5.18124 v -1.432741"
     id="path42-3-7-2"
     inkscape:connector-curvature="0" />
  <path
     style="fill:none;stroke:#000000;stroke-width:0.33074999;stroke-linecap:butt;stroke-linejoin:miter;stroke-miterlimit:4;stroke-dasharray:none;stroke-opacity:1"
     d="m 172.85915,15.983882 h 5.18124 v 1.432741 h -5.18124 v -1.432741"
     id="path42-3-5-7"
     inkscape:connector-curvature="0" />
  <path
     style="fill:none;stroke:#000000;stroke-width:0.33074999;stroke-linecap:butt;stroke-linejoin:miter;stroke-miterlimit:4;stroke-dasharray:none;stroke-opacity:1"
     d="m 185.35914,15.983882 h 5.18125 v 1.432741 h -5.18125 v -1.432741"
     id="path42-6-3-0"
     inkscape:connector-curvature="0" />
  <path
     style="fill:none;stroke:#000000;stroke-width:0.33074999;stroke-linecap:butt;stroke-linejoin:miter;stroke-miterlimit:4;stroke-dasharray:none;stroke-opacity:1"
     d="m 197.85914,15.983882 h 5.18125 v 1.432741 h -5.18125 v -1.432741"
     id="path42-3-7-5-9"
     inkscape:connector-curvature="0" />
  <path
     style="fill:none;stroke:#000000;stroke-width:0.33074999;stroke-linecap:butt;stroke-linejoin:miter;stroke-miterlimit:4;stroke-dasharray:none;stroke-opacity:1"
     d="m 220.85915,15.983882 h 5.18124 v 1.432741 h -5.18124 v -1.432741"
     id="path42-36"
     inkscape:connector-curvature="0" />
  <path
     style="fill:none;stroke:#000000;stroke-width:0.33074999;stroke-linecap:butt;stroke-linejoin:miter;stroke-miterlimit:4;stroke-dasharray:none;stroke-opacity:1"
     d="m 233.35914,15.983882 h 5.18125 v 1.432741 h -5.18125 v -1.432741"
     id="path42-3-0"
     inkscape:connector-curvature="0" />
  <path
     style="fill:none;stroke:#000000;stroke-width:0.33074999;stroke-linecap:butt;stroke-linejoin:miter;stroke-miterlimit:4;stroke-dasharray:none;stroke-opacity:1"
     d="m 245.85914,15.983882 h 5.18124 v 1.432741 h -5.18124 v -1.432741"
     id="path42-6-6"
     inkscape:connector-curvature="0" />
  <path
     style="fill:none;stroke:#000000;stroke-width:0.33074999;stroke-linecap:butt;stroke-linejoin:miter;stroke-miterlimit:4;stroke-dasharray:none;stroke-opacity:1"
     d="m 258.35914,15.983882 h 5.18124 v 1.432741 h -5.18124 v -1.432741"
     id="path42-3-7-26"
     inkscape:connector-curvature="0" />
  <path
     style="fill:none;stroke:#000000;stroke-width:0.33074999;stroke-linecap:butt;stroke-linejoin:miter;stroke-miterlimit:4;stroke-dasharray:none;stroke-opacity:1"
     d="m 270.85913,15.983882 h 5.18125 v 1.432741 h -5.18125 v -1.432741"
     id="path42-3-5-1"
     inkscape:connector-curvature="0" />
  <path
     style="fill:none;stroke:#000000;stroke-width:0.33074999;stroke-linecap:butt;stroke-linejoin:miter;stroke-miterlimit:4;stroke-dasharray:none;stroke-opacity:1"
     d="m 283.35913,15.983882 h 5.18128 v 1.432741 h -5.18128 v -1.432741"
     id="path42-6-3-8"
     inkscape:connector-curvature="0" />
  <path
     style="fill:none;stroke:#000000;stroke-width:0.33074999;stroke-linecap:butt;stroke-linejoin:miter;stroke-miterlimit:4;stroke-dasharray:none;stroke-opacity:1"
     d="m 295.85916,15.983882 h 5.18125 v 1.432741 h -5.18125 v -1.432741"
     id="path42-3-7-5-7"
     inkscape:connector-curvature="0" />
  <path
     style="fill:none;stroke:#000000;stroke-width:0.33074999;stroke-linecap:butt;stroke-linejoin:miter;stroke-miterlimit:4;stroke-dasharray:none;stroke-opacity:1"
     d="m 308.35913,15.983882 h 5.18123 v 1.432741 h -5.18123 v -1.432741"
     id="path42-3-5-1-9"
     inkscape:connector-curvature="0" />
  <path
     style="fill:none;stroke:#000000;stroke-width:0.33074999;stroke-linecap:butt;stroke-linejoin:miter;stroke-miterlimit:4;stroke-dasharray:none;stroke-opacity:1"
     d="m 320.85913,15.983882 h 5.18126 v 1.432741 h -5.18126 v -1.432741"
     id="path42-6-3-8-2"
     inkscape:connector-curvature="0" />
  <path
     style="fill:none;stroke:#000000;stroke-width:0.33074999;stroke-linecap:butt;stroke-linejoin:miter;stroke-miterlimit:4;stroke-dasharray:none;stroke-opacity:1"
     d="m 333.35913,15.983882 h 5.18131 v 1.432741 h -5.18131 v -1.432741"
     id="path42-3-7-5-7-0"
     inkscape:connector-curvature="0" />
  <path
     style="fill:none;stroke:#000000;stroke-width:0.33074999;stroke-linecap:butt;stroke-linejoin:miter;stroke-miterlimit:4;stroke-dasharray:none;stroke-opacity:1"
     d="m 225.0334,107.5909 v -5.18123 h 1.43274 v 5.18123 h -1.43274"
     id="path42-62-1-2"
     inkscape:connector-curvature="0" />
  <path
     style="fill:none;stroke:#000000;stroke-width:0.33074999;stroke-linecap:butt;stroke-linejoin:miter;stroke-miterlimit:4;stroke-dasharray:none;stroke-opacity:1"
     d="m 225.0334,95.090893 v -5.181237 h 1.43274 v 5.181237 h -1.43274"
     id="path42-3-9-2-0"
     inkscape:connector-curvature="0" />
  <path
     style="fill:none;stroke:#000000;stroke-width:0.33074999;stroke-linecap:butt;stroke-linejoin:miter;stroke-miterlimit:4;stroke-dasharray:none;stroke-opacity:1"
     d="m 225.0334,82.590916 v -5.181267 h 1.43274 v 5.181267 h -1.43274"
     id="path42-6-1-9-23"
     inkscape:connector-curvature="0" />
  <path
     style="fill:none;stroke:#000000;stroke-width:0.33074999;stroke-linecap:butt;stroke-linejoin:miter;stroke-miterlimit:4;stroke-dasharray:none;stroke-opacity:1"
     d="m 225.0334,70.090909 v -5.181264 h 1.43274 v 5.181264 h -1.43274"
     id="path42-3-7-2-3-7"
     inkscape:connector-curvature="0" />
  <path
     style="fill:none;stroke:#000000;stroke-width:0.33074999;stroke-linecap:butt;stroke-linejoin:miter;stroke-miterlimit:4;stroke-dasharray:none;stroke-opacity:1"
     d="m 225.0334,57.590902 v -5.181234 h 1.43274 v 5.181234 h -1.43274"
     id="path42-3-5-7-1-5"
     inkscape:connector-curvature="0" />
  <path
     style="fill:none;stroke:#000000;stroke-width:0.33074999;stroke-linecap:butt;stroke-linejoin:miter;stroke-miterlimit:4;stroke-dasharray:none;stroke-opacity:1"
     d="m 225.0334,45.090898 v -5.181237 h 1.43274 v 5.181237 h -1.43274"
     id="path42-6-3-0-9-9"
     inkscape:connector-curvature="0" />
  <path
     style="fill:none;stroke:#000000;stroke-width:0.33074999;stroke-linecap:butt;stroke-linejoin:miter;stroke-miterlimit:4;stroke-dasharray:none;stroke-opacity:1"
     d="m 225.0334,32.590919 v -5.181264 h 1.43274 v 5.181264 h -1.43274"
     id="path42-3-7-5-9-4-2"
     inkscape:connector-curvature="0" />
  <path
     style="fill:none;stroke:#000000;stroke-width:0.33074999;stroke-linecap:butt;stroke-linejoin:miter;stroke-miterlimit:4;stroke-dasharray:none;stroke-opacity:1"
     d="m 223.35915,148.98389 h 5.18124 v 1.43273 h -5.18124 v -1.43273"
     id="path42-36-2"
     inkscape:connector-curvature="0" />
  <path
     style="fill:none;stroke:#000000;stroke-width:0.33074999;stroke-linecap:butt;stroke-linejoin:miter;stroke-miterlimit:4;stroke-dasharray:none;stroke-opacity:1"
     d="m 235.85914,148.98389 h 5.18125 v 1.43273 h -5.18125 v -1.43273"
     id="path42-3-0-3"
     inkscape:connector-curvature="0" />
  <path
     style="fill:none;stroke:#000000;stroke-width:0.33074999;stroke-linecap:butt;stroke-linejoin:miter;stroke-miterlimit:4;stroke-dasharray:none;stroke-opacity:1"
     d="m 248.35914,148.98389 h 5.18124 v 1.43273 h -5.18124 v -1.43273"
     id="path42-6-6-7"
     inkscape:connector-curvature="0" />
  <path
     style="fill:none;stroke:#000000;stroke-width:0.33074999;stroke-linecap:butt;stroke-linejoin:miter;stroke-miterlimit:4;stroke-dasharray:none;stroke-opacity:1"
     d="m 260.85914,148.98389 h 5.18123 v 1.43273 h -5.18123 v -1.43273"
     id="path42-3-7-26-5"
     inkscape:connector-curvature="0" />
  <path
     style="fill:none;stroke:#000000;stroke-width:0.33074999;stroke-linecap:butt;stroke-linejoin:miter;stroke-miterlimit:4;stroke-dasharray:none;stroke-opacity:1"
     d="m 273.35913,148.98389 h 5.18124 v 1.43273 h -5.18124 v -1.43273"
     id="path42-3-5-1-92"
     inkscape:connector-curvature="0" />
  <path
     style="fill:none;stroke:#000000;stroke-width:0.33074999;stroke-linecap:butt;stroke-linejoin:miter;stroke-miterlimit:4;stroke-dasharray:none;stroke-opacity:1"
     d="m 285.85912,148.98389 h 5.18126 v 1.43273 h -5.18126 v -1.43273"
     id="path42-6-3-8-28"
     inkscape:connector-curvature="0" />
  <path
     style="fill:none;stroke:#000000;stroke-width:0.33074999;stroke-linecap:butt;stroke-linejoin:miter;stroke-miterlimit:4;stroke-dasharray:none;stroke-opacity:1"
     d="m 298.35913,148.98389 h 5.18125 v 1.43273 h -5.18125 v -1.43273"
     id="path42-3-7-5-7-9"
     inkscape:connector-curvature="0" />
  <path
     style="fill:none;stroke:#000000;stroke-width:0.33074999;stroke-linecap:butt;stroke-linejoin:miter;stroke-miterlimit:4;stroke-dasharray:none;stroke-opacity:1"
     d="m 310.85913,148.98389 h 5.18122 v 1.43273 h -5.18122 v -1.43273"
     id="path42-3-5-1-9-7"
     inkscape:connector-curvature="0" />
  <path
     style="fill:none;stroke:#000000;stroke-width:0.33074999;stroke-linecap:butt;stroke-linejoin:miter;stroke-miterlimit:4;stroke-dasharray:none;stroke-opacity:1"
     d="m 323.35915,148.98389 h 5.18126 v 1.43273 h -5.18126 v -1.43273"
     id="path42-6-3-8-2-3"
     inkscape:connector-curvature="0" />
  <path
     style="fill:none;stroke:#000000;stroke-width:0.33074999;stroke-linecap:butt;stroke-linejoin:miter;stroke-miterlimit:4;stroke-dasharray:none;stroke-opacity:1"
     d="m 335.85913,148.98389 h 5.18125 v 1.43273 h -5.18125 v -1.43273"
     id="path42-3-7-5-7-0-6"
     inkscape:connector-curvature="0" />
  <path
     style="fill:none;stroke:#000000;stroke-width:0.33074999;stroke-linecap:butt;stroke-linejoin:miter;stroke-miterlimit:4;stroke-dasharray:none;stroke-opacity:1"
     d="m 335.43339,240.59087 v -5.18123 h 1.43273 v 5.18123 h -1.43273"
     id="path42-62-1-7"
     inkscape:connector-curvature="0" />
  <path
     style="fill:none;stroke:#000000;stroke-width:0.33074999;stroke-linecap:butt;stroke-linejoin:miter;stroke-miterlimit:4;stroke-dasharray:none;stroke-opacity:1"
     d="m 335.43339,228.09053 v -5.18123 h 1.43273 v 5.18123 h -1.43273"
     id="path42-3-9-2-8"
     inkscape:connector-curvature="0" />
  <path
     style="fill:none;stroke:#000000;stroke-width:0.33074999;stroke-linecap:butt;stroke-linejoin:miter;stroke-miterlimit:4;stroke-dasharray:none;stroke-opacity:1"
     d="m 335.43339,215.59055 v -5.18126 h 1.43273 v 5.18126 h -1.43273"
     id="path42-6-1-9-4"
     inkscape:connector-curvature="0" />
  <path
     style="fill:none;stroke:#000000;stroke-width:0.33074999;stroke-linecap:butt;stroke-linejoin:miter;stroke-miterlimit:4;stroke-dasharray:none;stroke-opacity:1"
     d="m 335.43339,203.09054 v -5.18125 h 1.43273 v 5.18125 h -1.43273"
     id="path42-3-7-2-3-5"
     inkscape:connector-curvature="0" />
  <path
     style="fill:none;stroke:#000000;stroke-width:0.33074999;stroke-linecap:butt;stroke-linejoin:miter;stroke-miterlimit:4;stroke-dasharray:none;stroke-opacity:1"
     d="m 335.43339,190.59054 v -5.18126 h 1.43273 v 5.18126 h -1.43273"
     id="path42-3-5-7-1-0"
     inkscape:connector-curvature="0" />
  <path
     style="fill:none;stroke:#000000;stroke-width:0.33074999;stroke-linecap:butt;stroke-linejoin:miter;stroke-miterlimit:4;stroke-dasharray:none;stroke-opacity:1"
     d="m 335.43339,178.09053 v -5.18123 h 1.43273 v 5.18123 h -1.43273"
     id="path42-6-3-0-9-3"
     inkscape:connector-curvature="0" />
  <path
     style="fill:none;stroke:#000000;stroke-width:0.33074999;stroke-linecap:butt;stroke-linejoin:miter;stroke-miterlimit:4;stroke-dasharray:none;stroke-opacity:1"
     d="m 335.43339,165.59053 v -5.18123 h 1.43273 v 5.18123 h -1.43273"
     id="path42-3-7-5-9-4-6"
     inkscape:connector-curvature="0" />
  <path
     inkscape:connector-curvature="0"
     style="fill:none;stroke:#0000fb;stroke-width:0.29999998;stroke-miterlimit:4;stroke-dasharray:none;stroke-opacity:1"
     d="m 21,13.000054 h 10.8 v -2.400021 h 8.19999 v 2.400021 h 7.8 v -2.400021 h 8.2 v 2.400021 h 7.8 v -2.400021 h 8.19999 v 2.400021 h 7.8 v -2.400021 h 8.19999 v 2.400021 h 10.8 v -2.400021 h 11.19999 v 10.7 h -2.4 v 10.300001 h 2.4 v 8.199987 h -2.4 v 7.800023 h 2.4 v 8.199988 h -2.4 v 7.799993 h 2.4 v 8.200017 h -2.4 v 7.799993 h 2.4 v 8.199988 h -2.4 v 7.800023 h 2.4 v 8.199984 h -2.4 v 7.79999 h 2.4 v 8.20002 h -2.4 v 10.3 h 2.4 v 10.7 H 98.79997 v -2.40002 h -10.8 v 2.40002 h -8.19999 v -2.40002 h -7.8 v 2.40002 h -8.19999 v -2.40002 h -7.8 v 2.40002 h -8.2 v -2.40002 h -7.8 v 2.40002 H 31.8 v -2.40002 H 21 v 2.40002 H 9.80001 v -10.7 h 2.4 v -10.3 h -2.4 v -8.20002 h 2.4 v -7.79999 h -2.4 v -8.199984 h 2.4 v -7.800023 h -2.4 v -8.199988 h 2.4 v -7.799993 h -2.4 v -8.200017 h 2.4 v -7.799993 h -2.4 v -8.199988 h 2.4 v -7.800023 h -2.4 v -8.199987 h 2.4 V 21.300033 h -2.4 v -10.7 H 21 Z"
     id="polygon12422" />
  <path
     inkscape:connector-curvature="0"
     style="fill:none;stroke:#0000fb;stroke-width:0.29999998;stroke-miterlimit:4;stroke-dasharray:none;stroke-opacity:1"
     d="m 124,13.000054 h 10.8 v -2.400021 h 8.19999 v 2.400021 h 7.8 v -2.400021 h 8.19999 v 2.400021 h 7.8 v -2.400021 h 8.19999 v 2.400021 h 7.8 v -2.400021 h 8.2 v 2.400021 h 10.80001 v -2.400021 h 11.19997 v 10.7 h -2.39999 v 10.300001 h 2.39999 v 8.199987 h -2.39999 v 7.800023 h 2.39999 v 8.199988 h -2.39999 v 7.799993 h 2.39999 v 8.200017 h -2.39999 v 7.799993 h 2.39999 v 8.199988 h -2.39999 v 7.800023 h 2.39999 v 8.199984 h -2.39999 v 7.79999 h 2.39999 v 8.20002 h -2.39999 v 10.3 h 2.39999 v 10.7 h -11.19997 v -2.40002 h -10.80001 v 2.40002 h -8.2 v -2.40002 h -7.8 v 2.40002 h -8.19999 v -2.40002 h -7.8 v 2.40002 h -8.19999 v -2.40002 h -7.8 v 2.40002 H 134.8 v -2.40002 H 124 v 2.40002 h -11.19999 v -10.7 H 115.2 v -10.3 h -2.39999 v -8.20002 H 115.2 v -7.79999 h -2.39999 V 95.600046 H 115.2 v -7.800023 h -2.39999 V 79.600035 H 115.2 v -7.799993 h -2.39999 V 63.600025 H 115.2 v -7.799993 h -2.39999 V 47.600044 H 115.2 v -7.800023 h -2.39999 V 31.600034 H 115.2 V 21.300033 h -2.39999 v -10.7 H 124 Z"
     id="polygon12426" />
  <path
     inkscape:connector-curvature="0"
     style="fill:none;stroke:#0000fb;stroke-width:0.29999998;stroke-miterlimit:4;stroke-dasharray:none;stroke-opacity:1"
     d="m 226.49999,13.000054 h 10.29999 v -2.400021 h 8.19999 v 2.400021 h 7.79999 v -2.400021 h 8.20002 v 2.400021 h 7.79999 v -2.400021 h 8.19999 v 2.400021 h 7.79997 v -2.400021 h 8.19999 v 2.400021 h 7.8 v -2.400021 h 8.19999 v 2.400021 h 7.8 v -2.400021 h 8.19999 v 2.400021 h 10.29999 v -2.400021 h 8.30001 v 10.499989 h 2.39998 v 10.700023 h -2.39998 v 7.799994 h 2.39998 v 8.199988 h -2.39998 v 7.799993 h 2.39998 v 8.200017 h -2.39998 v 7.799993 h 2.39998 v 8.200017 h -2.39998 v 7.799994 h 2.39998 v 8.199987 h -2.39998 v 7.799992 h 2.39998 v 8.20002 h -2.39998 v 7.79999 h 2.39998 v 10.69999 h -2.39998 v 10.50002 h -8.30001 v -2.40002 H 324.9999 v 2.40002 h -8.19999 v -2.40002 h -7.8 v 2.40002 h -8.19999 v -2.40002 h -7.8 v 2.40002 h -8.19999 v -2.40002 h -7.79997 v 2.40002 h -8.19999 v -2.40002 h -7.79999 v 2.40002 h -8.20002 v -2.40002 h -7.79999 v 2.40002 h -8.19999 v -2.40002 h -10.29999 v 2.40002 h -8.3 V 130.30002 H 215.8 v -10.69999 h 2.39999 v -7.79999 H 215.8 v -8.20002 h 2.39999 V 95.800028 H 215.8 v -8.199987 h 2.39999 V 79.800047 H 215.8 V 71.60003 h 2.39999 V 63.800037 H 215.8 V 55.60002 h 2.39999 V 47.800027 H 215.8 v -8.199988 h 2.39999 V 31.800045 H 215.8 V 21.100022 h 2.39999 V 10.600033 h 8.3 z"
     id="polygon12430" />
  <path
     inkscape:connector-curvature="0"
     style="fill:none;stroke:#0000fb;stroke-width:0.29999998;stroke-miterlimit:4;stroke-dasharray:none;stroke-opacity:1"
     d="m 226.49999,146 h 10.29999 v -2.39998 h 8.19999 V 146 h 7.79999 v -2.39998 h 8.20002 V 146 h 7.79999 v -2.39998 h 8.19999 V 146 h 7.79997 v -2.39998 h 8.19999 V 146 h 7.8 v -2.39998 h 8.19999 V 146 h 7.8 v -2.39998 h 8.19999 V 146 h 10.29999 v -2.39998 h 8.30001 v 10.50001 h 2.39998 v 10.69999 h -2.39998 v 7.8 h 2.39998 V 180.8 h -2.39998 v 7.80003 h 2.39998 v 8.19998 h -2.39998 v 7.8 h 2.39998 v 8.20001 h -2.39998 v 7.8 h 2.39998 v 8.20001 h -2.39998 v 7.8 h 2.39998 v 8.19999 h -2.39998 v 7.79999 h 2.39998 v 10.70002 h -2.39998 v 10.49999 h -8.30001 v -2.39999 H 324.9999 v 2.39999 h -8.19999 v -2.39999 h -7.8 v 2.39999 h -8.19999 v -2.39999 h -7.8 v 2.39999 h -8.19999 v -2.39999 h -7.79997 v 2.39999 h -8.19999 v -2.39999 h -7.79999 v 2.39999 h -8.20002 v -2.39999 h -7.79999 v 2.39999 h -8.19999 v -2.39999 h -10.29999 v 2.39999 h -8.3 V 263.30003 H 215.8 v -10.70002 h 2.39999 v -7.79999 H 215.8 v -8.19999 h 2.39999 v -7.8 H 215.8 v -8.20001 h 2.39999 v -7.8 H 215.8 v -8.20001 h 2.39999 v -7.8 H 215.8 v -8.19998 h 2.39999 V 180.8 H 215.8 v -8.19998 h 2.39999 v -7.8 H 215.8 v -10.69999 h 2.39999 v -10.50001 h 8.3 z"
     id="polygon12434" />
  <path
     inkscape:connector-curvature="0"
     style="fill:none;stroke:#0000fb;stroke-width:0.29999998;stroke-miterlimit:4;stroke-dasharray:none;stroke-opacity:1"
     d="M 20.8,143.60002 H 32 V 146 h 7.8 v -2.39998 h 8.19999 V 146 h 7.8 v -2.39998 h 8.19999 V 146 h 7.8 v -2.39998 h 8.19999 V 146 h 7.8 v -2.39998 h 11.2 V 146 h 8.59999 v 8.10003 h 2.4 v 10.69999 h -2.4 v 7.8 h 2.4 V 180.8 h -2.4 v 7.80003 h 2.4 v 8.19998 h -2.4 v 7.8 h 2.4 v 8.20001 h -2.4 v 7.8 h 2.4 v 8.20001 h -2.4 v 7.8 h 2.4 v 8.19999 h -2.4 v 7.79999 h 2.4 v 10.70002 h -2.4 v 8.1 h -8.59999 v 2.39999 h -11.2 v -2.39999 h -7.8 v 2.39999 h -8.19999 v -2.39999 h -7.8 v 2.39999 h -8.19999 v -2.39999 h -7.8 v 2.39999 H 39.8 v -2.39999 H 32 v 2.39999 H 20.8 v -2.39999 h -8.59999 v -8.1 h -2.4 v -10.70002 h 2.4 v -7.79999 h -2.4 v -8.19999 h 2.4 v -7.8 h -2.4 v -8.20001 h 2.4 v -7.8 h -2.4 v -8.20001 h 2.4 v -7.8 h -2.4 v -8.19998 h 2.4 V 180.8 h -2.4 v -8.19998 h 2.4 v -7.8 h -2.4 v -10.69999 h 2.4 V 146 H 20.8 Z"
     id="polygon12440" />
  <path
     inkscape:connector-curvature="0"
     style="fill:none;stroke:#0000fb;stroke-width:0.29999998;stroke-miterlimit:4;stroke-dasharray:none;stroke-opacity:1"
     d="m 123.8,143.60002 h 11.19999 V 146 h 7.8 v -2.39998 h 8.19999 V 146 h 7.8 v -2.39998 h 8.2 V 146 h 7.79999 v -2.39998 h 8.2 V 146 h 7.79999 v -2.39998 h 11.2 V 146 h 8.6 v 8.10003 h 2.39999 v 10.69999 h -2.39999 v 7.8 h 2.39999 V 180.8 h -2.39999 v 7.80003 h 2.39999 v 8.19998 h -2.39999 v 7.8 h 2.39999 v 8.20001 h -2.39999 v 7.8 h 2.39999 v 8.20001 h -2.39999 v 7.8 h 2.39999 v 8.19999 h -2.39999 v 7.79999 h 2.39999 v 10.70002 h -2.39999 v 8.1 h -8.6 v 2.39999 h -11.2 v -2.39999 h -7.79999 v 2.39999 h -8.2 v -2.39999 h -7.79999 v 2.39999 h -8.2 v -2.39999 h -7.8 v 2.39999 h -8.19999 v -2.39999 h -7.8 v 2.39999 H 123.8 v -2.39999 h -8.6 v -8.1 h -2.39999 V 252.60001 H 115.2 v -7.79999 h -2.39999 v -8.19999 H 115.2 v -7.8 h -2.39999 v -8.20001 H 115.2 v -7.8 h -2.39999 v -8.20001 H 115.2 v -7.8 h -2.39999 v -8.19998 H 115.2 V 180.8 h -2.39999 v -8.19998 H 115.2 v -7.8 h -2.39999 V 154.10003 H 115.2 V 146 h 8.6 z"
     id="polygon12444" />
  <path
     inkscape:connector-curvature="0"
     style="fill:none;fill-opacity:1;stroke:#000000;stroke-width:0.30000001;stroke-linejoin:bevel;stroke-miterlimit:4;stroke-dasharray:none;stroke-dashoffset:0;stroke-opacity:1"
     d="m 35.50564,186.88703 a 13.104,13.104 0 0 0 -13.10372,13.10372 13.104,13.104 0 0 0 5.5882,10.72686 34.498802,34.498802 0 0 0 -2.53938,12.9287 34.498802,34.498802 0 0 0 2.87067,13.67567 13.104,13.104 0 0 0 -5.91949,10.95189 13.104,13.104 0 0 0 13.10372,13.10424 13.104,13.104 0 0 0 10.97846,-5.97106 34.498802,34.498802 0 0 0 13.46574,2.73836 34.498802,34.498802 0 0 0 13.36052,-2.7295 13.104,13.104 0 0 0 10.98263,5.9622 13.104,13.104 0 0 0 13.10424,-13.10424 13.104,13.104 0 0 0 -5.82052,-10.88574 34.498802,34.498802 0 0 0 2.87172,-13.74182 34.498802,34.498802 0 0 0 -2.66284,-13.21207 13.104,13.104 0 0 0 5.20795,-10.44349 13.104,13.104 0 0 0 -13.10373,-13.10372 13.104,13.104 0 0 0 -10.3315,5.06835 34.498802,34.498802 0 0 0 -13.60847,-2.80765 34.498802,34.498802 0 0 0 -13.96372,2.99881 13.104,13.104 0 0 0 -10.48048,-5.25951 z"
     id="path6452" />
  <path
     style="fill:none;stroke:#000000;stroke-width:0.29999998;stroke-linecap:butt;stroke-linejoin:miter;stroke-miterlimit:4;stroke-dasharray:none;stroke-opacity:1"
     d="m 117.71452,37.663505 h 90 v 76.000005 h -90 z"
     id="path1135"
     inkscape:connector-curvature="0"
     sodipodi:nodetypes="ccccc" />
</svg>
